<svg width="55" height="42" viewBox="0 0 55 42" fill="none" xmlns="http://www.w3.org/2000/svg">
<path d="M24.2593 0.66686L16.0093 29.2669L13.0393 17.3869C16.706 17.3869 19.7126 18.4502 22.0593 20.5769C24.406 22.7035 25.5793 25.6369 25.5793 29.3769C25.5793 33.1169 24.3693 36.1235 21.9493 38.3969C19.6026 40.5969 16.6326 41.6969 13.0393 41.6969C9.44596 41.6969 6.4393 40.5969 4.0193 38.3969C1.67263 36.1235 0.499297 33.1169 0.499297 29.3769C0.499297 28.3502 0.57263 27.3235 0.719297 26.2969C0.939297 25.2702 1.30596 24.0235 1.8193 22.5569C2.33263 21.0902 3.10263 19.1835 4.1293 16.8369L11.1693 0.66686H24.2593ZM53.0793 0.66686L44.8293 29.2669L41.8593 17.3869C45.526 17.3869 48.5326 18.4502 50.8793 20.5769C53.226 22.7035 54.3993 25.6369 54.3993 29.3769C54.3993 33.1169 53.1893 36.1235 50.7693 38.3969C48.4226 40.5969 45.4526 41.6969 41.8593 41.6969C38.266 41.6969 35.2593 40.5969 32.8393 38.3969C30.4926 36.1235 29.3193 33.1169 29.3193 29.3769C29.3193 28.3502 29.3926 27.3235 29.5393 26.2969C29.7593 25.2702 30.126 24.0235 30.6393 22.5569C31.1526 21.0902 31.9226 19.1835 32.9493 16.8369L39.9893 0.66686H53.0793Z" fill="white"/>
</svg>
